<?xml version="1.0" encoding="UTF-8" standalone="no"?>
<svg
   xmlns:dc="http://purl.org/dc/elements/1.1/"
   xmlns:cc="http://creativecommons.org/ns#"
   xmlns:rdf="http://www.w3.org/1999/02/22-rdf-syntax-ns#"
   xmlns:svg="http://www.w3.org/2000/svg"
   xmlns="http://www.w3.org/2000/svg"
   xmlns:sodipodi="http://sodipodi.sourceforge.net/DTD/sodipodi-0.dtd"
   xmlns:inkscape="http://www.inkscape.org/namespaces/inkscape"
   version="1.0"
   width="708.000000pt"
   height="468.000000pt"
   viewBox="0 0 708.000000 468.000000"
   preserveAspectRatio="xMidYMid meet"
   id="svg3394"
   inkscape:version="0.91 r13725"
   sodipodi:docname="PhantomsLogo.svg">
  <defs
     id="defs3412" />
  <sodipodi:namedview
     pagecolor="#ffffff"
     bordercolor="#666666"
     borderopacity="1"
     objecttolerance="10"
     gridtolerance="10"
     guidetolerance="10"
     inkscape:pageopacity="0"
     inkscape:pageshadow="2"
     inkscape:window-width="1920"
     inkscape:window-height="1031"
     id="namedview3410"
     showgrid="false"
     inkscape:zoom="1.4581197"
     inkscape:cx="383.86897"
     inkscape:cy="292.5"
     inkscape:window-x="0"
     inkscape:window-y="25"
     inkscape:window-maximized="1"
     inkscape:current-layer="g3398" />
  <metadata
     id="metadata3396">
Created by potrace 1.13, written by Peter Selinger 2001-2015
<rdf:RDF>
  <cc:Work
     rdf:about="">
    <dc:format>image/svg+xml</dc:format>
    <dc:type
       rdf:resource="http://purl.org/dc/dcmitype/StillImage" />
    <dc:title></dc:title>
  </cc:Work>
</rdf:RDF>
</metadata>
  <g
     transform="translate(0.000000,468.000000) scale(0.100000,-0.100000)"
     fill="#000000"
     stroke="none"
     id="g3398"
     style="fill:#019b00;fill-opacity:1">
    <path
       d="M723 4503 c3 -98 13 -212 21 -253 36 -188 137 -390 284 -570 l62 -75 -307 -3 -306 -2 7 -179 c10 -272 25 -340 116 -526 55 -113 118 -210 197 -305 l54 -65 -306 -3 -305 -2 0 -89 c0 -141 19 -340 40 -416 42 -157 137 -334 263 -490 l65 -80 -306 -3 -305 -2 6 -178 c10 -308 63 -474 229 -719 74 -109 210 -248 320 -326 136 -97 322 -175 473 -198 60 -9 553 -13 1986 -16 l1906 -4 11 43 c6 24 71 266 144 539 l133 496 130 6 c417 19 782 160 1095 424 210 177 343 346 461 588 246 504 249 1048 6 1558 -101 211 -242 400 -433 575 -205 189 -527 347 -843 413 -60 13 -167 24 -286 29 -104 5 -1186 9 -2404 10 l-2214 0 6 -177z m4587 47 c261 -8 316 -17 486 -71 138 -44 279 -112 423 -205 100 -64 145 -102 240 -199 227 -236 347 -431 430 -702 54 -175 64 -256 64 -498 1 -237 -11 -325 -67 -508 -37 -120 -163 -368 -237 -466 -35 -47 -78 -104 -96 -127 -56 -74 -239 -227 -383 -319 -159 -103 -405 -199 -587 -230 -48 -8 -172 -19 -275 -23 -103 -5 -189 -10 -191 -13 -2 -2 -66 -242 -143 -534 l-139 -530 -1917 2 -1918 1 -72 28 c-40 15 -111 46 -158 70 -289 144 -529 425 -616 721 -20 69 -27 119 -31 230 l-6 143 365 0 c201 0 386 3 411 6 l47 7 -58 40 c-131 91 -261 227 -361 375 -96 142 -147 301 -156 487 -3 61 -8 122 -10 138 l-5 27 369 0 c364 0 461 5 461 21 0 5 -6 9 -12 9 -7 0 -40 20 -73 45 -334 251 -495 548 -495 915 l0 95 395 -3 c217 -2 402 1 410 5 12 7 0 20 -57 58 -138 95 -324 306 -402 455 -69 134 -106 295 -106 468 l0 92 2113 -1 c1161 0 2222 -4 2357 -9z"
       id="path3400"
       style="fill:#019b00;fill-opacity:1" />
    <path
       d="M963 4366 c26 -304 272 -637 587 -796 87 -43 129 -58 208 -72 36 -6 720 -13 1822 -18 1945 -8 1829 -4 1964 -70 153 -76 276 -229 315 -394 15 -63 15 -210 0 -272 -45 -184 -168 -329 -354 -415 -63 -30 -77 -32 -229 -40 -88 -4 -305 -8 -481 -9 -176 0 -356 -3 -401 -6 l-81 -7 -181 -676 c-312 -1163 -356 -1330 -348 -1338 9 -9 942 -11 951 -2 3 4 67 233 141 510 75 277 139 515 143 529 l7 25 220 6 c137 4 253 12 309 23 575 107 1036 513 1214 1068 43 135 61 248 68 418 6 166 -5 283 -43 427 -116 447 -410 812 -823 1022 -82 42 -268 110 -346 126 -144 29 -521 35 -2599 35 l-2069 0 6 -74z"
       id="path3402"
       style="fill:#000000;fill-opacity:1" />
    <path
       d="M743 3393 l-63 -4 0 -68 c0 -87 39 -243 85 -339 102 -216 310 -425 531 -535 106 -53 160 -68 274 -78 58 -4 950 -8 1982 -8 l1878 -1 77 43 c101 55 200 154 244 242 61 124 64 339 6 457 -50 102 -143 194 -261 259 l-65 35 -2313 1 c-1272 0 -2341 -2 -2375 -4z"
       id="path3404"
       style="fill:#fe0000;fill-opacity:1" />
    <path
       d="M483 2207 c10 -133 89 -331 181 -454 71 -95 242 -252 335 -307 45 -27 128 -65 184 -85 l102 -36 1324 -3 c729 -1 1328 1 1332 5 8 9 249 904 249 926 0 11 -28 16 -112 20 -62 4 -898 7 -1857 7 l-1744 0 6 -73z"
       id="path3406"
       style="fill:#000000;fill-opacity:1" />
    <path
       d="M244 1123 c14 -148 90 -331 197 -470 67 -86 219 -224 307 -276 44 -27 124 -67 179 -90 l98 -42 1307 0 c904 0 1310 3 1318 11 9 9 88 295 213 766 43 163 43 167 23 172 -12 3 -837 6 -1835 6 l-1814 0 7 -77z"
       id="path3408"
       style="fill:#000000;fill-opacity:1" />
  </g>
</svg>
